<?xml version="1.0" encoding="UTF-8" standalone="no"?>
<!-- Created with Inkscape (http://www.inkscape.org/) -->

<svg
   xmlns:osb="http://www.openswatchbook.org/uri/2009/osb"
   xmlns:dc="http://purl.org/dc/elements/1.1/"
   xmlns:cc="http://creativecommons.org/ns#"
   xmlns:rdf="http://www.w3.org/1999/02/22-rdf-syntax-ns#"
   xmlns:svg="http://www.w3.org/2000/svg"
   xmlns="http://www.w3.org/2000/svg"
   xmlns:sodipodi="http://sodipodi.sourceforge.net/DTD/sodipodi-0.dtd"
   xmlns:inkscape="http://www.inkscape.org/namespaces/inkscape"
   width="400"
   height="501"
   id="svg2"
   version="1.1"
   inkscape:version="0.48.2 r9819"
   sodipodi:docname="New document 1">
  <defs
     id="defs4">
    <linearGradient
       inkscape:collect="always"
       id="linearGradient5738"
       osb:paint="gradient">
      <stop
         style="stop-color:#000000;stop-opacity:1;"
         offset="0"
         id="stop5740" />
      <stop
         style="stop-color:#000000;stop-opacity:0;"
         offset="1"
         id="stop5742" />
    </linearGradient>
    <linearGradient
       id="linearGradient5507"
       osb:paint="solid">
      <stop
         style="stop-color:#000000;stop-opacity:1;"
         offset="0"
         id="stop5509" />
    </linearGradient>
    <linearGradient
       id="linearGradient5461"
       osb:paint="solid">
      <stop
         style="stop-color:#deaa87;stop-opacity:1;"
         offset="0"
         id="stop5463" />
    </linearGradient>
    <filter
       inkscape:collect="always"
       id="filter5762">
      <feGaussianBlur
         inkscape:collect="always"
         stdDeviation="0.43037585"
         id="feGaussianBlur5764" />
    </filter>
  </defs>
  <sodipodi:namedview
     id="base"
     pagecolor="#ffffff"
     bordercolor="#666666"
     borderopacity="1.0"
     inkscape:pageopacity="0.0"
     inkscape:pageshadow="2"
     inkscape:zoom="1.4"
     inkscape:cx="70.405638"
     inkscape:cy="243.36391"
     inkscape:document-units="px"
     inkscape:current-layer="layer1"
     showgrid="false"
     inkscape:window-width="1902"
     inkscape:window-height="912"
     inkscape:window-x="0"
     inkscape:window-y="24"
     inkscape:window-maximized="1" />
  <metadata
     id="metadata7">
    <rdf:RDF>
      <cc:Work
         rdf:about="">
        <dc:format>image/svg+xml</dc:format>
        <dc:type
           rdf:resource="http://purl.org/dc/dcmitype/StillImage" />
        <dc:title></dc:title>
      </cc:Work>
    </rdf:RDF>
  </metadata>
  <g
     inkscape:label="Layer 1"
     inkscape:groupmode="layer"
     id="layer1"
     transform="translate(0,-2656.0856)">
    <path
       style="stroke:#000000;stroke-width:1px;stroke-linecap:butt;stroke-linejoin:miter;stroke-opacity:1;fill-opacity:0.96446699000000002;fill:#e9c6af;filter:url(#filter5762)"
       d="M 10.0625 87.40625 C 11.751393 112.27011 13.154515 137.19478 12.46875 162.125 C 12.06019 186.72585 11.343568 211.33291 11.875 235.9375 C 12.656385 239.93006 14.540256 243.63937 16.810469 246.97902 C 18.173585 248.40326 19.493088 249.93213 20.099335 251.84419 C 21.144914 254.18529 21.79841 256.76357 21.394462 259.33417 C 21.322765 262.84292 19.597856 266.00739 19.067602 269.43419 C 18.455904 273.08758 16.870612 276.74172 17.697356 280.49063 C 18.46567 282.67312 18.413362 285.12551 19.59375 287.15625 C 20.828782 288.97857 21.510333 291.1942 21.333859 293.4003 C 21.653626 295.07612 21.255115 296.78657 20.288616 298.1815 C 19.106468 300.46598 17.403439 302.97319 18.125 305.65625 C 18.779245 306.61811 20.262827 307.64871 19.463357 308.95098 C 18.036165 312.04109 13.554414 312.0343 12.34375 315.3125 C 11.507721 318.00536 12.061264 320.86062 11.875 323.62809 C 11.97793 336.76519 13.131548 349.86565 13.34375 363 C 14.285247 392.31015 13.368672 421.63293 12.638941 450.93652 C 12.506522 456.91736 12.291847 462.92544 12.589059 468.89218 C 13.508593 471.7292 16.702847 472.51089 19.0625 473.75 C 21.893493 475.22049 24.384153 477.61803 25.309464 480.73821 C 26.247499 482.85011 27.855328 485.20122 30.42555 485.23072 C 37.701147 486.21854 45.045853 485.30171 52.35133 485.3869 C 80.907226 484.79166 109.46111 484.09965 138.01981 483.64593 C 166.55714 483.05904 195.10325 483.60181 223.62761 484.51878 C 229.47424 484.64252 235.33147 484.89772 241.17444 484.79204 C 243.6238 484.21361 244.45852 481.50977 245.37123 479.47972 C 250.37986 467.24497 255.49668 455.05487 260.5625 442.84375 C 258.98104 434.37656 256.44671 426.13245 254.375 417.78125 C 258.91608 424.89389 263.23419 432.1451 267.6875 439.3125 C 265.33219 454.57803 262.23662 469.71577 259.625 484.9375 C 258.79295 485.71801 259.90344 487.24041 260.90625 486.71875 C 291.55208 486.71875 322.19792 486.71875 352.84375 486.71875 C 350.22917 484.57292 347.61458 482.42708 345 480.28125 C 347.85417 479.09375 350.70833 477.90625 353.5625 476.71875 C 351.89583 473.625 350.22917 470.53125 348.5625 467.4375 C 353.09375 466.71875 357.625 466 362.15625 465.28125 C 360.01042 462.66667 357.86458 460.05208 355.71875 457.4375 C 363.57292 458.625 371.42708 459.8125 379.28125 461 C 378.95054 435.0325 378.09354 409.06833 376.53329 383.14482 C 376.29793 378.61954 375.80961 373.80964 373.03407 370.04738 C 370.1036 366.54187 366.95231 363.21508 364.07567 359.65896 C 362.32128 357.59556 360.56689 355.53215 358.8125 353.46875 C 358.56048 351.52652 360.72914 350.74343 362.10101 349.98075 C 368.65459 346.66281 375.47962 343.82895 381.65625 339.8125 C 383.52801 337.56972 382.60713 334.50338 382.74099 331.85325 C 381.82944 293.01996 380.66569 254.19037 380.19491 215.34859 C 380.47318 208.1247 380.83045 200.89742 380.9379 193.6712 C 380.67029 192.13157 381.14421 190.59311 380.9375 189.0625 C 381.66842 188.17632 381.27931 187.12426 381.5 186.09375 C 381.75635 183.0554 381.71018 179.99858 381.86381 176.96095 C 382.5856 171.18438 382.55778 165.34752 382.97606 159.54534 C 383.43465 151.98743 383.92757 144.43166 384.40625 136.875 C 376.63542 150.07292 368.86458 163.27083 361.09375 176.46875 C 369.30208 158.22917 377.51042 139.98958 385.71875 121.75 C 384.7852 96.156479 383.73132 70.567165 382.9375 44.96875 C 383.86458 34.125 384.79167 23.28125 385.71875 12.4375 C 262.36458 11.979167 139.01042 11.520833 15.65625 11.0625 C 13.791667 36.510417 11.927083 61.958333 10.0625 87.40625 z "
       id="path2985"
       inkscape:connector-curvature="0"
       transform="translate(0,2656.0856)"
       sodipodi:nodetypes="cccccccccccccccccccccccccccccccccccccccccccccccccccccccccccccccccccc" />
    <path
       style="font-size:medium;font-style:normal;font-variant:normal;font-weight:normal;font-stretch:normal;text-indent:0;text-align:start;text-decoration:none;line-height:normal;letter-spacing:normal;word-spacing:normal;text-transform:none;direction:ltr;block-progression:tb;writing-mode:lr-tb;text-anchor:start;baseline-shift:baseline;color:#000000;fill:#000000;fill-opacity:1;fill-rule:nonzero;stroke:none;stroke-width:1px;marker:none;visibility:visible;display:inline;overflow:visible;enable-background:accumulate;font-family:Sans;-inkscape-font-specification:Sans"
       d="m 15.1875,2666.6481 -0.03125,0.4687 -5.59375,76.3438 0,0.031 0,0.031 c 1.712652,23.8875 2.976404,47.7977 2.46875,71.75 -0.49577,24.4606 -1.101825,48.9223 -0.90625,73.4062 0.04335,4.3785 1.166383,8.8463 3.84375,12.4375 l -0.03125,0 c 2.50031,3.709 5.848761,7.0487 6.21875,11.4375 0.334414,5.09 -2.02833,9.8943 -3.1875,15 -1.23933,4.9084 -1.359943,10.346 1,15.0313 1.354888,3.1432 2.876017,6.5308 1.65625,9.7187 -1.027888,2.5513 -3.383312,4.9171 -3.46875,8.1875 l 0,0.062 0.03125,0.062 c 0.266068,0.9511 0.902731,1.6478 1.40625,2.2813 0.479261,0.603 0.788167,1.1184 0.78125,1.7812 -0.856551,1.358 -2.280757,2.146 -3.8125,3 -1.581775,0.882 -3.249286,1.8484 -4.125,3.7188 l -0.0625,0.094 0,0.094 c -0.529164,8.347 0.594352,16.6076 0.65625,24.8437 l 0,0.031 c 0.902844,19.5663 1.643016,39.1419 1.4375,58.7187 -0.406382,22.3179 -1.552544,44.6211 -1.75,66.9688 l 0,0.031 c 0.0047,0.748 -0.0659,1.6083 0.03125,2.4688 0.09715,0.8605 0.382205,1.7459 1.125,2.4375 1.204909,1.1461 2.677316,1.7435 4.09375,2.3125 1.416434,0.569 2.792826,1.0954 3.875,2.0312 l 0,0.031 0.03125,0 c 1.778206,1.184 2.859053,3.1386 3.75,5.1562 l 0,0.031 c 0.862421,1.7216 1.79114,3.478 3.1875,4.9375 l 0.125,0.094 0.125,0.062 c 5.537923,1.3201 11.171206,0.2306 16.5625,0.5625 l 0.03125,0 c 36.635155,-1.0797 73.26094,-2.0457 109.90625,-2.4375 18.64664,-0.2782 37.32356,0.2236 55.96875,0.875 10.13037,0.3577 20.25562,0.6194 30.375,0.9375 l 0.0312,0 c 1.24753,-0.027 2.17754,-0.7087 2.8125,-1.5625 0.63496,-0.8537 1.03148,-1.8752 1.375,-2.7187 5.18641,-12.7971 10.56832,-25.5404 15.90625,-38.2813 l 0.0625,-0.125 -0.0312,-0.1562 c -1.38193,-7.3989 -3.4596,-14.6069 -5.34375,-21.8438 3.85924,6.1439 7.60357,12.3258 11.4375,18.5 -1.2539,9.1879 -3.20139,18.2892 -4.75,27.4688 -0.002,0.01 0.002,0.021 0,0.031 l -3.625,19.7188 -0.0937,0.5937 0.59375,0 93.5625,0 1.40625,0 -1.09375,-0.875 -7.21875,-5.9062 7.8125,-3.25 0.5,-0.2188 -0.25,-0.5 -4.65625,-8.625 12.90625,-2.0625 0.84375,-0.1562 -0.5625,-0.6563 -5.625,-6.8437 22.3125,3.375 0.5625,0.094 0,-0.5937 c -0.14728,-18.7642 -0.58417,-37.5346 -1.5,-56.2813 -0.38636,-5.4724 -0.53262,-10.971 -0.84375,-16.4687 l 0,-0.062 0,-0.031 c -0.25476,-1.282 0.2172,-2.7924 -0.28125,-4.4062 l -0.0625,-0.125 -0.0937,-0.094 c -0.20551,-0.1888 -0.24191,-0.2657 -0.25,-0.3437 -0.008,-0.078 0.0203,-0.1878 0.0937,-0.375 0.0734,-0.1872 0.19336,-0.4407 0.25,-0.75 0.0518,-0.2826 -0.0118,-0.6267 -0.15625,-0.9688 l 0.0625,0 c -0.0582,-0.2501 0.029,-0.7458 0.0937,-1.3125 0.0324,-0.2833 0.0675,-0.5851 -0.0312,-0.9062 -0.0686,-0.2231 -0.27521,-0.4146 -0.46875,-0.5938 -0.44542,-1.1535 -0.20849,-2.603 -0.75,-4.0937 l 0,-0.031 c -0.30975,-0.7675 -0.40596,-1.9218 -1.25,-2.7812 -0.12184,-0.4132 -0.31874,-0.8046 -0.5625,-1.0625 -0.16013,-0.1694 -0.32965,-0.3034 -0.4375,-0.4063 -0.0453,-0.043 -0.0727,-0.072 -0.0937,-0.094 -0.001,-0.02 0.024,-0.07 0.0625,0.125 l -0.0312,0 c 0.008,-0.046 -0.0347,-0.08 -0.0312,-0.125 2.2e-4,0 -0.003,-0.034 0,-0.031 0.0126,-0.2455 0.10066,-0.506 -0.0312,-0.6875 -0.21598,-0.2971 -0.53027,-0.417 -0.78125,-0.5 -0.25098,-0.083 -0.46831,-0.1345 -0.625,-0.1875 -0.15669,-0.053 -0.16536,-0.121 -0.125,-0.031 l -0.0625,-0.125 c 0.0533,-0.1928 0.023,-0.6017 -0.21875,-0.8438 -0.1796,-0.1798 -0.43792,-0.2202 -0.71875,-0.2812 -0.22135,-0.1813 -0.30389,-0.3966 -0.4375,-0.75 -0.12954,-0.3427 -0.36969,-0.7831 -0.875,-1.0938 l 0,-0.031 c -0.009,-0.01 -0.0222,0.01 -0.0312,0 -0.43366,-0.2797 -0.86667,-0.4723 -1.125,-0.6563 -0.25285,-0.18 -0.32581,-0.2737 -0.3125,-0.5625 0.001,-0.011 -9e-4,-0.02 0,-0.031 0.0556,-0.6945 -0.3536,-1.2248 -0.75,-1.5313 -0.40285,-0.3114 -0.79002,-0.533 -0.96875,-0.7187 l -0.1875,-0.1875 -0.25,0.031 c -0.0362,-0.054 -0.12888,-0.2421 -0.1875,-0.4687 -0.0586,-0.2266 -0.10712,-0.4831 -0.25,-0.75 -0.14288,-0.2669 -0.47372,-0.5635 -0.875,-0.5625 l -0.0312,0 c -0.13724,0.01 -0.1805,-0 -0.25,-0.062 -0.0695,-0.061 -0.14107,-0.1992 -0.21875,-0.375 -0.15536,-0.3517 -0.26277,-0.8616 -0.5,-1.3125 l -0.0312,-0.062 -0.0312,-0.031 c -0.88681,-1.0104 -1.95202,-1.7852 -2.90625,-2.5625 -0.19789,-0.2678 -0.35267,-0.6867 -0.59375,-1.125 -0.21206,-0.3855 -0.59074,-0.74 -1.09375,-0.9687 l 0.0312,-0.031 c -0.28727,-0.2773 -0.24321,-0.4823 -0.0625,-0.8125 0.18071,-0.3301 0.58037,-0.6376 0.90625,-0.7187 l 0.0937,-0.031 0.0625,-0.062 c 0.43451,-0.3085 0.99106,-0.4688 1.59375,-0.6875 0.60269,-0.2186 1.25558,-0.5049 1.78125,-1.0937 0.61722,-0.6657 1.4458,-0.9988 2.375,-1.3438 0.88809,-0.3296 1.84812,-0.697 2.6875,-1.375 l 0.0312,0.031 c 0.97146,-0.4474 2.30439,-0.5767 3.40625,-1.4688 l 0,0.031 c 1.42381,-0.6577 2.94376,-1.2082 4.375,-2.0625 0.0123,-0.01 0.0189,-0.024 0.0312,-0.031 2.17173,-1.1441 4.47151,-2.2381 6.5,-3.75 l 0.0625,-0.062 0.0312,-0.062 c 0.53038,-0.7676 0.53725,-1.6304 0.46875,-2.4062 -0.0685,-0.7758 -0.19385,-1.5031 -0.125,-2.0938 l 0,-0.031 0,-0.031 c -0.77644,-35.3895 -1.76872,-70.7731 -2.6875,-106.1562 -0.22112,-7.9705 -0.2371,-15.9664 0.34375,-23.9063 1.27403,-22.7642 2.63344,-45.5187 3.96875,-68.2812 l -0.9375,-0.2813 -18.40625,31.4375 20.625,-46.0625 0.0312,-0.125 0,-0.125 c -0.93323,-25.5846 -1.98765,-51.1341 -2.78125,-76.7187 -3.2e-4,-0.01 3.2e-4,-0.021 0,-0.031 l 2.78125,-32.5 0.0312,-0.5312 -0.53125,0 -370.0625,-1.375 -0.46875,0 z m 0.9375,1 369.0625,1.375 -2.75,32 0,0.031 c 0.79231,25.5498 1.84917,51.1163 2.78125,76.6563 l -24.40625,54.5 -0.0312,0.031 0.46875,0.2188 0.4375,0.25 0.0312,-0.031 0.0312,-0.094 22.03125,-37.5938 c -1.29593,22.0636 -2.60865,44.1188 -3.84375,66.1875 -0.58451,7.9899 -0.56535,16.0125 -0.34375,24 0.91828,35.3639 1.91135,70.698 2.6875,106.0625 4.6e-4,0.021 -4.6e-4,0.042 0,0.062 -0.0789,0.7913 0.0962,1.5701 0.15625,2.25 0.0585,0.6625 -0.0229,1.1859 -0.3125,1.6563 -1.91905,1.4151 -4.10553,2.5088 -6.28125,3.6562 l -0.0312,0.031 c -1.33047,0.8 -2.82246,1.3117 -4.3125,2 l -0.0625,0.031 -0.0625,0.062 c -0.80471,0.7055 -2.03903,0.7717 -3.28125,1.3438 l -0.0625,0.031 -0.0312,0.062 c -0.67748,0.5834 -1.58394,0.8984 -2.53125,1.25 -0.94731,0.3517 -1.94906,0.73 -2.75,1.5938 l 0,0.031 c -0.35062,0.3928 -0.83932,0.6069 -1.40625,0.8125 -0.51894,0.1883 -1.09419,0.3914 -1.65625,0.75 l 0,-0.031 c -0.0294,0.01 -0.0334,0.054 -0.0625,0.062 -0.0303,0.02 -0.0637,0.01 -0.0937,0.031 l 0,0.031 c -0.57108,0.1992 -1.08141,0.5573 -1.375,1.0937 -0.32703,0.5976 -0.35038,1.4828 0.25,2.0625 l 0.0937,0.062 0.0937,0.031 c 0.31651,0.098 0.49797,0.3117 0.6875,0.6562 0.18953,0.3446 0.33726,0.8183 0.65625,1.25 l 0.0312,0.031 0.0625,0.031 c 0.99683,0.8183 2.03669,1.5905 2.84375,2.5 0.11303,0.243 0.22923,0.7161 0.4375,1.1875 0.10985,0.2487 0.23116,0.5118 0.46875,0.7188 0.23064,0.2009 0.58345,0.3203 0.9375,0.3125 0.024,-10e-5 -0.0478,-0.058 0,0.031 0.0478,0.089 0.095,0.2944 0.15625,0.5313 0.0613,0.2369 0.13565,0.5149 0.3125,0.7812 0.10241,0.1543 0.35136,0.1695 0.5625,0.25 l -0.0312,0.031 c 0.37073,0.3852 0.84165,0.5935 1.125,0.8125 0.28335,0.219 0.3787,0.3102 0.34375,0.6562 l 0,0.031 c -0.0465,0.6597 0.34216,1.1784 0.75,1.4687 0.40784,0.2904 0.85429,0.4695 1.1875,0.6875 0.28462,0.1633 0.34886,0.3392 0.46875,0.6563 0.11989,0.3171 0.26324,0.7831 0.71875,1.1562 l 0.125,0.094 0.125,0.031 c 0.26878,0.037 0.31757,0.053 0.34375,0.062 -0.0271,0.055 -0.07,0.078 -0.0937,0.25 -0.0176,0.1278 0.008,0.3734 0.15625,0.5313 0.12828,0.1366 0.27905,0.165 0.40625,0.1875 0.0199,0 0.0435,0.029 0.0625,0.031 0.11671,0.068 0.20479,0.2137 0.3125,0.25 0.24074,0.081 0.47921,0.129 0.65625,0.1875 0.17704,0.059 0.2822,0.1576 0.28125,0.1563 -9.5e-4,-0 0.0199,-0.047 -0.0625,0.1562 l -0.0625,0.125 0.0312,0.1563 c 0.0542,0.2741 0.13596,0.2873 0.1875,0.3437 0.0515,0.057 0.0978,0.1006 0.15625,0.1563 0.11684,0.1114 0.27481,0.2359 0.40625,0.375 0.26287,0.2781 0.43822,0.6132 0.4375,0.7187 l 0,0.1875 0.125,0.1563 c 0.51412,0.5235 0.63992,1.4991 1.03125,2.4687 0.42371,1.1665 0.17606,2.6387 0.75,4.125 l 0.0625,0.1563 0.15625,0.094 c 0.15423,0.087 0.18552,0.142 0.21875,0.25 0.0332,0.1081 0.0566,0.2781 0.0312,0.5 -0.0507,0.4439 -0.27456,1.045 -0.125,1.6875 l 0.0312,0.031 0.0312,0.062 c 0.0919,0.1851 0.0895,0.2898 0.0625,0.4375 -0.027,0.1477 -0.0995,0.3381 -0.1875,0.5625 -0.088,0.2244 -0.19195,0.4995 -0.15625,0.8437 0.0278,0.2678 0.19933,0.5332 0.40625,0.7813 0.3766,1.2193 4.6e-4,2.6551 0.28125,4.2187 l -0.0312,0 c 0.30999,5.4777 0.45533,10.9984 0.84375,16.5 0.90533,18.5318 1.34843,37.0688 1.5,55.625 l -23,-3.4687 -1.28125,-0.1875 0.84375,1 5.875,7.1562 -12.75,2.0313 -0.6875,0.125 0.34375,0.625 4.71875,8.7812 -8.03125,3.3438 -0.78125,0.3125 0.65625,0.5312 6.78125,5.5625 -91.59375,0 3.53125,-19.1562 c 1.55341,-9.2135 3.51996,-18.3854 4.78125,-27.6875 l 0.0312,-0.1875 -0.0937,-0.125 c -4.41802,-7.1106 -8.73924,-14.3342 -13.25,-21.4063 -0.0326,-0.051 -0.0611,-0.105 -0.0937,-0.1562 l -0.90625,0.4062 c 2.06574,8.3272 4.58013,16.5204 6.15625,24.9063 -5.31591,12.6876 -10.64366,25.3712 -15.8125,38.125 -0.34452,0.846 -0.7565,1.7945 -1.28125,2.5 -0.51814,0.6966 -1.1171,1.1264 -2,1.1562 -0.0104,-3e-4 -0.0208,4e-4 -0.0312,0 -10.11152,-0.3177 -20.22887,-0.5803 -30.34375,-0.9375 -18.65073,-0.6516 -37.32568,-1.1536 -56,-0.875 -36.65615,0.3919 -73.300671,1.3577 -109.9375,2.4375 l 0,0.031 c -5.483897,-0.3275 -10.954553,0.632 -16.15625,-0.5625 -1.21064,-1.3041 -2.111435,-2.9147 -2.9375,-4.5625 -0.0036,-0.01 0.0036,-0.023 0,-0.031 -0.905342,-2.0468 -2.052088,-4.144 -4.0625,-5.5 -0.01131,-0.01 -0.01991,-0.021 -0.03125,-0.031 -1.242916,-1.0621 -2.69716,-1.6265 -4.09375,-2.1875 -1.409337,-0.5661 -2.746457,-1.1407 -3.78125,-2.125 -0.530989,-0.4944 -0.730548,-1.0866 -0.8125,-1.8125 -0.08087,-0.7164 -0.02798,-1.5432 -0.03125,-2.3438 -4.4e-5,-0.011 6.7e-5,-0.02 0,-0.031 0.198008,-22.3085 1.343398,-44.6075 1.75,-66.9375 0.205858,-19.6095 -0.534418,-39.2098 -1.4375,-58.7813 -0.06222,-8.2793 -1.157982,-16.4821 -0.65625,-24.6562 0.735219,-1.4947 2.115884,-2.3599 3.65625,-3.2188 1.56835,-0.8744 3.293822,-1.7591 4.3125,-3.5 l 0.0625,-0.094 0,-0.125 c 0.06762,-1.0778 -0.493068,-1.8854 -1.03125,-2.5625 -0.521797,-0.6565 -1.024598,-1.225 -1.21875,-1.8438 0.103573,-2.7527 2.27849,-4.9508 3.40625,-7.75 1.401045,-3.6617 -0.339096,-7.3718 -1.6875,-10.5 l 0,-0.031 c -2.213293,-4.3941 -2.137126,-9.5926 -0.9375,-14.3438 l 0,-0.031 c 1.123262,-4.9476 3.57561,-9.8809 3.21875,-15.3125 -0.407899,-4.8386 -3.953912,-8.3149 -6.375,-11.9063 l 0,-0.031 c -2.518319,-3.3779 -3.614515,-7.628 -3.65625,-11.8438 -0.195399,-24.462 0.410416,-48.9112 0.90625,-73.375 0.508263,-23.981 -0.757471,-47.9022 -2.46875,-71.7812 l 0,-0.031 c -7.44e-4,-0.01 7.44e-4,-0.021 0,-0.031 l 5.5625,-75.8125 z"
       id="path5532"
       inkscape:connector-curvature="0" />
  </g>
</svg>
